<?xml version="1.0" encoding="utf-8"?>
<!-- Generator: Adobe Illustrator 17.0.0, SVG Export Plug-In . SVG Version: 6.00 Build 0)  -->
<!DOCTYPE svg PUBLIC "-//W3C//DTD SVG 1.1//EN" "http://www.w3.org/Graphics/SVG/1.1/DTD/svg11.dtd">
<svg version="1.1" id="Camada_1" xmlns="http://www.w3.org/2000/svg" xmlns:xlink="http://www.w3.org/1999/xlink" x="0px" y="0px"
	 width="500px" height="500px" viewBox="0 0 500 500" enable-background="new 0 0 500 500" xml:space="preserve">
<g id="Cathay_Pacific" transform="translate(39.000000, 87.000000)">
	<path id="Fill-2" fill="#FFFFFE" d="M31.642,64c-1.942-5.743-4.468-14.283-4.633-20.392c-0.148-5.63,1.603-7.216,2.839-8.357
		c1.986-1.83,3.858-2.501,2.491-8.34c-1.454-6.266-3.092-8.261-3.606-11.939c-0.523-3.678-1.724-9.351,3.266-13.525
		c4.99-4.166,9.981,1.664,11.792,4.924c1.794,3.259,2.865,8.784,3.431,12.105c0.862,5.011,4.555,8.113,9.554,9.351
		c4.268,1.054,7.42,2.571,8.857,10.85c1.376,7.93,3.658,8.148,4.903,11.024C71.522,51.956,74.344,58.414,77,64H31.642"/>
	<polyline id="Fill-3" fill="#FFFFFE" points="86.574,74 409,74 409,276 15,276 15,74 86.574,74 	"/>
	<polyline id="Fill-3_1_" fill="#FFFFFE" points="41.482,60.78 71.835,50.917 134.256,243.031 97.165,255.083 34.744,62.969 
		41.482,60.78 	"/>
	<path id="Fill-4" fill="#005F5E" d="M41.399,21.081l1.48,0.807c0.203-0.061-0.855,0.193-0.687,0.061
		c0.414,0.333,0.59,0.903,0.89,1.36c0.361,0.553,0.414,1.132,0.775,1.746c0.07,0.825,0.855,1.474,0.881,2.298
		c0.687,1.325,1.154,2.982,1.436,4.456c0.388,0.623,0.335,1.439,0.67,2.202c0.379,1.202,0.538,2.553,1.322,3.658
		c0.229,1.114,0.714,2.132,1.242,3.088c0.96,3.789,2.547,7.386,3.727,11.131c0.352,0.377,0.326,0.895,0.599,1.342
		c1.507,2.421,1.665,5.438,3.163,7.903c1.146,2.614,2.062,5.491,3.269,8.079l-0.018,0.026c0.282-0.018,0.07,0.439,0.379,0.518
		c-0.132,0.333,0.211,0.518,0.317,0.781c0.344,0.825,0.811,1.868,1.11,2.754c-0.07,0.544,0.485,0.965,0.652,1.509
		c1.63,3.395,3.102,7,4.785,10.386c2.115,4.675,4.177,9.43,6.917,13.675c2.185,4.184,4.327,8.394,6.785,12.403
		c1.049,2.368,2.265,4.684,4.018,6.596c0.115,0.623,0.564,1.096,0.89,1.623l0.784,1.535c-0.282,0.561,0.59,1.026-0.018,1.509
		c-0.009,0.184,0.079,0.439,0.229,0.561c-0.115,0.36-0.211,0.57-0.414,0.903c-0.159-0.132-0.3,0.272-0.449,0.263
		c0.079,0.36-0.062,0.36-0.467,0.57c-0.167,0.018-0.247,0.193-0.467,0.175c-0.634-0.596-0.52-0.018-1.066-0.64
		c-0.247,0.088-0.943-0.614-1.146-0.667c-0.925-0.307-1.101-1.167-1.701-1.386c-1.78-1.623-2.414-4.088-3.904-5.912
		c-1.163-1.86-2.291-3.667-3.375-5.588c-1.013-2.026-2.538-3.886-3.296-6.079c-1.436-2.482-3.075-5.079-3.992-7.631
		c-0.634-0.675-0.784-1.667-1.357-2.368c-0.59-1.772-1.401-3.447-2.353-5.096c-0.317-1.719-1.419-2.991-2.036-4.544
		c-1.383-1.456-1.251-3.824-2.503-5.421c-0.784-1.053-0.996-2.57-1.551-3.781c-1.745-2.298-2.009-5.465-3.551-7.903
		c-0.899-2.21-1.798-4.254-2.423-6.588c-0.793-1.272-0.608-2.754-1.26-4.053c-0.026-0.763-0.485-1.517-0.714-2.202
		c-0.59-1.114-0.511-2.228-1.242-3.228c-0.379-1.877-1.066-3.36-1.613-5.219c-0.617-2.289-1.665-4.272-2.018-6.666
		c-0.952-2.588-1.419-5.175-2.52-7.614c-0.3-1.395-1.075-2.93-1.428-4.245c-0.203-0.281,0.405-1.833,0.132-2.079
		c-0.097-0.956-0.696-1.263,0.185-2c0.079-0.298-0.062-0.5,0.229-0.667C40.729,22.897,40.527,20.537,41.399,21.081"/>
	<path id="Fill-5" fill="#005F5E" d="M46.965,84.137c-0.078-0.296-0.426-1.2-0.521-1.417c-0.165-0.104-0.13-0.348-0.235-0.53
		c-0.278-1.104-0.938-1.939-1.182-3.095l-1.616-5.486c-0.217-0.035-0.052-0.348-0.252-0.278c-0.686-2.086-1.277-4.208-1.972-6.407
		c-0.417-1.66-1.13-3.451-1.651-5.138c-0.174-1.913-1.138-3.886-1.625-5.798c-0.539-1.452-0.843-2.93-1.164-4.442
		c-0.791-3.269-1.486-5.772-1.747-9.093c0.313-0.383,0.104-1.391,0.556-1.591c0.912-0.339,0.191-1.904,1.008-1.86
		c2.007,0.956,1.469,4.764,2.867,6.259c0.652,1.843,0.973,3.895,1.912,5.642c0.009,0.469,0.93,0.356,1.034,0.817
		c0.991,2.634,1.199,5.911,1.886,8.615c0.747,1.747,1.173,3.643,1.677,5.459c0.652,2.026,1.599,3.825,2.494,5.694
		c-0.078,0.183-0.043,0.435,0.104,0.565c0.287,1.069,0.33,2.295,1.069,3.19c0.287,0.835,0.634,1.504,0.956,2.217
		c0.078,0.356,0.174,0.765,0.469,1.035l0.035,0.356l-0.043,0.017c0.6,0.956,0.591,1.878,1.26,2.773
		c-0.13,0.139,0.009,0.348,0.035,0.548c0.243,0.052,0.217,0.443,0.252,0.704c0.174,0.217,0.174,0.643,0.495,0.808
		c0.66,1.391,0.643,3.069,1.503,4.338c0.304,0.852,0.73,1.582,0.973,2.478c0.825,1.434,1.477,3.043,2.164,4.634
		c0.617,1.356,1.225,2.695,1.555,4.068c0.122,0.304,0.339,0.565,0.374,0.887c0.73,1.269,1.19,2.678,1.773,4.016
		c0.235,0.191,0.174,0.652,0.348,0.913c0.678,1.078,1.173,2.121,1.694,3.234c0.348,0.139,0.243,0.609,0.426,0.8
		c0.547,0.53,0.513,1.443,1.06,1.982c0.513,1.208,1.164,2.243,1.677,3.451c0.791,1.608,1.616,3.295,2.563,4.851
		c0.356,0.965,0.965,1.652,1.356,2.556c0.912,1.304,1.425,2.817,2.224,4.182c1.573,2.686,3.65,5.199,4.518,8.276
		c0.382,0.365,0.417,0.887,0.669,1.278c1.225,2.312,2.659,4.564,4.119,6.763c0.348,1.834,2.025,2.904,2.659,4.651
		c0.348,0.609,0.825,1.13,1.26,1.713c1.008,1.956,2.45,3.634,3.728,5.399c0.878,0.869,1.382,2.034,2.155,2.982
		c0.2,0.243,0.122,0.548,0.122,0.808c-0.243,0.496-0.695,1.035-1.303,0.948l-0.13-0.078c-0.756,0.339-1.616,0.052-2.355,0.13
		c-0.113-0.191-0.33-0.096-0.408,0.017c-1.069-0.183-1.338-1.347-2.155-1.947c-1.121-1.078-2.711-2.052-3.163-3.651
		c-0.713-1.304-1.051-2.66-2.042-3.799c-1.008-1.521-1.868-3.069-2.937-4.547c-0.287-0.956-1.303-1.356-1.442-2.417
		c-0.278-0.365-0.417-0.808-0.791-1.078c-0.348-0.6-0.478-1.261-0.904-1.8c-0.026-0.522-0.556-0.774-0.773-1.217
		c-0.104-0.991-0.973-1.695-1.364-2.608c-0.652-0.904-0.869-1.973-1.564-2.834c-0.243-0.461-0.365-1-0.817-1.321
		c-0.513-1.017-1.043-2.13-1.773-2.938c0.052-0.261-0.313-0.226-0.322-0.461c-0.66-0.956-0.843-2.269-1.668-3.095
		c-0.4-0.765-0.504-1.521-1.077-2.147c-0.217-1.304-1.234-2.017-1.512-3.269c-0.843-1.53-1.912-2.912-2.633-4.512
		c-0.408-0.565-0.782-1.191-1.173-1.782c-0.096-1.573-1.347-2.512-1.86-3.921c-0.825-1.982-1.564-4.103-2.876-5.816
		c-0.53-1.304-0.999-2.686-1.72-3.869c-0.391-0.904-0.478-1.991-1.225-2.704c-0.817-2.478-2.311-4.807-3.076-7.337
		c-0.278-0.4-0.4-0.93-0.765-1.295C47.791,86.997,47.365,85.702,46.965,84.137"/>
	<path id="Fill-6" fill="#005F5E" d="M60.322,46c0.264,0.382,1.02,0.478,1.178,1.085c0.782,0.286,0.853,1.215,1.266,1.78
		c0.642,2.24,1.266,4.436,2.716,6.32l0.483,1.797c0.272,0.243,0.308,0.695,0.519,1.016c0.633,1.155,0.703,2.44,1.626,3.447
		c0.105,0.434,0.65,0.625,0.642,1.12c0.29,0.408,0.316,0.964,0.8,1.311c0.773,2.448,1.556,4.584,2.9,6.737
		c0.756,1.077,0.853,2.526,1.784,3.499c0.396,0.781,0.967,1.476,1.274,2.335c0.316,0.234,0.281,0.79,0.51,1.085
		c1.037,2.11,2.602,3.855,3.445,6.077c0.527,0.521,0.853,1.224,0.782,1.945c0.606,0.877,0.984,1.893,1.723,2.683
		c0.483,1.198,1.459,2.04,1.793,3.282c0.325,0.286,0.633,0.547,0.563,0.964c0.369,0.703,0.905,1.077,1.362,1.693
		c-0.053,0.208,0.097,0.339,0.211,0.408c0.237,1.024,0.817,1.78,1.134,2.743c0.352,0.912,1.116,1.537,1.503,2.396
		c1.02,0.903,1.336,2.309,2.197,3.343c1.107,1.841,2.127,3.742,2.848,5.773c0.932,1.05,1.925,2.249,2.373,3.672
		c0.659,0.799,1.239,1.667,2.013,2.405c0.519,1.745,1.811,2.943,2.487,4.645c1.433,1.658,1.995,3.811,3.665,5.235
		c0.545,0.799,1.081,1.606,1.538,2.474c0.369,0.451,0.606,1.181,1.081,1.667c1.011,1.094,2.092,2.266,2.936,3.56
		c0.712,0.99,1.389,1.988,1.863,3.125l0.413,1.302c0.044,0.677,0.176,1.571-0.308,2.075c-0.229-0.069-0.431,0.009-0.668-0.104
		c0.044-0.009,0.009-0.078,0-0.122c-0.396,0.061-0.404-0.286-0.65-0.443c-0.343-0.017-0.149-0.512-0.501-0.495
		c-0.694-0.868-1.775-1.007-2.373-1.953c-0.8-0.347-1.028-1.137-1.855-1.493c-1.169-1.589-2.118-3.334-3.489-4.723
		c-0.563-0.998-1.494-1.815-1.995-2.856c-1.23-2.04-2.821-3.881-4.113-5.878c-2.048-2.162-3.489-4.723-4.983-7.258
		c-0.431-0.313-0.773-0.677-0.826-1.215c-2.637-3.603-4.808-7.545-7.04-11.347c-1.661-2.544-3.094-5.053-4.526-7.64
		c-0.097-0.026-0.141-0.13-0.088-0.208c-1.125-1.589-2.092-3.316-2.874-5.027c-0.993-1.615-1.714-3.299-2.733-4.871
		c-1.151-2.405-2.417-4.879-3.718-7.232c-0.176-0.886-0.87-1.502-1.107-2.353c-1.415-1.988-2.566-4.402-3.322-6.694
		c-0.167-0.165-0.325-0.347-0.29-0.634c-1.063-1.389-1.397-3.369-2.356-4.931c-1.213-2.379-1.758-4.567-2.619-6.563
		c-0.141-1.554-1.723-2.804-1.028-4.489c-0.36-0.417-0.123-1.042-0.334-1.441c-0.114-0.608-0.246-1.198-0.053-1.693
		c-0.079-0.425,0.316-0.721,0.615-0.964C59.223,46.009,59.777,46.113,60.322,46"/>
	<path id="Fill-7" fill="#005F5E" d="M58.548,37.023c-0.403-0.603-0.47-1.571-1.216-1.881c-0.151-0.63-0.881-0.731-1.116-1.142
		c-0.528,0.128-1.049,0.009-1.535,0.402c-0.294,0.247-0.663,0.566-0.587,1.014c-0.185,0.53-0.059,1.142,0.05,1.781
		c0.201,0.42-0.008,1.078,0.327,1.516c0.705,0.904,1.216,0.667,1.879,1.571c0.344,0,0.562,0.995,0.881,1.023
		c0.243,0.155,0.252,0.521,0.621,0.457c0.008,0.046,0.05,0.119,0.008,0.128C58.078,42,58.28,41.927,58.498,42
		c0.461-0.53,0.528-1.525,0.495-2.237L58.548,37.023"/>
	<path id="Fill-8" fill="#005F5E" d="M36.359,17.242c0.351,0.679-0.351,1.883,0.334,2.466c0.1,0.669,0.994,4.129,1.68,4.292
		c0.526-0.076,0.961-2.514,1.479-2.877c0.927-0.669,0.234-1.195,0.226-1.443c0.226-0.535,0.978-1.749,0.919-2.438
		c-0.167-0.459-0.727-0.545-1.028-1.042c-0.618-1.004-1.078-2.724-1.671-3.738c-0.334-0.019-0.109-0.535-0.418-0.593
		c-0.234-0.201-0.201-0.583-0.585-0.554c-0.008-0.048-0.033-0.124,0.008-0.124c-0.217-0.153-0.418-0.096-0.627-0.191
		c-0.493,0.507-0.652,1.529-0.677,2.275L36.359,17.242"/>
	<path id="Fill-9" fill="#005F5E" d="M99.192,173.03c-0.821,0.839,1.198,4.16,2.038,3.834c0.576,0.364,1.236-0.131,1.736,0
		c0.33-0.494,0.849-0.802,0.972-1.464c0.075-0.401,0.151-0.914-0.226-1.203c-0.198-0.522-0.745-0.886-1.283-1.278
		c-0.462-0.177-0.745-0.83-1.33-0.905C100.381,171.939,100.032,172.163,99.192,173.03"/>
	<path id="Fill-10" fill="#005F5E" d="M115.797,148.129c0.492,0.565,0.643,1.562,1.514,1.816c0.227,0.64,1.05,0.659,1.363,1.054
		c0.577-0.169,1.173-0.104,1.694-0.546c0.303-0.292,0.691-0.64,0.568-1.101c0.17-0.546-0.028-1.167-0.208-1.816
		c-0.265-0.414-0.076-1.111-0.501-1.525c-0.861-0.866-1.921-1.035-2.744-1.892c-0.378,0.028-0.218-0.518-0.577-0.508
		c-0.284-0.141-0.322-0.527-0.738-0.424c-0.019-0.047-0.066-0.104-0.019-0.122c-0.265-0.104-0.473,0-0.729-0.066
		c-0.464,0.593-0.464,1.619-0.369,2.353L115.797,148.129"/>
	<path id="Fill-11" fill="#005F5E" d="M96.945,164.087c1.538,0.977,2.644,4.894,1.715,4.912c-0.672,0.018-3.289-0.356-4.182-0.666
		c-0.681-0.228-4.173-4.455-4.421-5.387c-0.486-1.808,2.246-2.045,3.563-1.917C94.531,161.111,95.097,162.901,96.945,164.087"/>
	<path id="Fill-12" fill="#005F5E" d="M49.041,104.484c0.174,0.629,0.791,0.97,0.73,1.704c0.287,0.201,0.478,0.262,0.469,0.691
		c-0.174,0.288-0.087,0.647,0.07,0.813c0.295,0.07,0.035,0.402,0.165,0.603l0.348,0.227c0.191-0.201,0.243,0.157,0.287,0.149
		c-0.252,0.927,0.461,1.53,0.843,1.888c0.209,0.245,0.122,1.093,0.991,2.841C72.485,154.7,97.684,208.57,153,231.278
		C153.017,231.637,84.754,275,84.754,275H10V73h28.753l-0.547,1.18c0.33,0.848,0.443,2.316,0.947,2.981l0.495,2.089
		c0.235,0.909,0.782,3.531,1.034,3.811c0.061,0.42,1.903,3.933,2.007,4.362c0.148,0.297,0.869,3.531,1.173,3.68
		c0.156-0.114,0.408,1.189,0.469,1.355c-0.122,0.42,0.504,1.897,0.808,2.194c0.104,0.323-0.061,1.101,0.304,0.97
		c0,0-0.122,0.656,0.148,0.778c0.408,0.559,0.573,0.516,0.417,1.119c0,0.455,0.582,1.101,0.73,1.468
		c0.122,0.376,0.521,1.678,0.521,1.678c0.382,0.428,0.408,1.197,0.947,1.818L49.041,104.484"/>
	<path id="Fill-13" fill="#005F5E" d="M129.333,121.686c-0.367,0.201-0.777,0.979-0.83,1.346c-0.052,0.358,0.253,1.442,0.777,2.535
		c0.542,1.154,0.935,2.378,1.808,3.269c0.21,0.76,0.935,1.206,1.127,2.028c0.786,1.197,1.485,2.482,2.254,3.715
		c0.489,0.393,0.629,1.101,1.083,1.538c1.127,1.285,2.027,2.753,3.145,4.038c0.245,0.533,0.515,0.909,1.04,1.241
		c0.07,1.005,1.197,1.608,1.703,2.465c0.253,0.629,1.171,0.9,1.127,1.643c0.716,0.647,0.839,1.617,1.703,2.089l0.105,0.323
		c0.533,0.813,1.275,1.468,1.878,2.238c0.341,0.017,0.48,0.35,0.568,0.629c1.599,1.827,3.433,3.531,4.935,5.446
		c0.323,0.166,0.402,0.839,0.891,0.795c0.751,1.023,1.677,1.879,2.725,2.622l-0.009,0.061c0.681,0.586,1.232,1.25,1.948,1.774
		c0.166,0.455,0.9,0.533,0.952,1.075c0.97,0.909,2.027,2.054,3.241,2.579c-0.105,0.787,1.284,0.42,0.874,1.259
		c0.297,0.07,0.646,0.245,0.804,0.507c-0.341,0.673-0.987-0.087-1.424,0.297c-0.69,0.227-1.022-0.568-1.703-0.411
		c-0.585-0.061-1.153-0.262-1.651-0.577c-2.07-0.577-3.372-1.582-5.206-2.78c-0.515-0.717-1.398-1.04-1.913-1.757
		c0.061-0.044,0.079-0.14,0.044-0.21c-0.55,0.157-0.76-0.629-1.162-0.734c-0.306-0.114,0-0.533-0.437-0.472
		c-1.04-1.101-2.053-2.264-3.101-3.304c0.017-0.14-0.122-0.236-0.236-0.184c-0.236-0.236-0.288-0.577-0.69-0.682l0.009-0.253
		c-0.428,0.07-0.507-0.358-0.76-0.638c-0.349-0.306-0.917-0.699-1.101-1.206c-0.323,0.079-0.245-0.463-0.577-0.437
		c-0.227-0.184-0.21-0.638-0.646-0.752c-0.044-0.227-0.288-0.157-0.411-0.341c-0.026-0.437-0.446-0.437-0.594-0.839
		c-2.428-3.016-5.259-5.961-7.574-9.169c-1.45-1.993-3.075-3.828-4.315-5.979c-0.699-0.865-1.459-1.687-2.088-2.587
		c0.026-0.533-0.507-0.673-0.585-1.154c-0.987-1.276-1.869-2.692-2.944-3.881c-1.074-1.914-2.996-3.514-4.114-5.358
		c-1.328-1.643-1.607-3.759-3.512-4.912c-0.271-0.175-1.223-0.358-1.511-0.507c-0.332,0.096,0.017,0.9-0.175,1.206
		c-0.358,1.547,0.428,2.552,1.04,3.986c0.559,0.586,0.603,1.792,1.048,2.5c1.031,1.512,1.931,3.199,3.092,4.554
		c-0.026,0.288,0.323,0.402,0.288,0.647c1.092,1.766,2.586,3.217,3.538,5.017c1.144,1.39,2,2.972,3.188,4.353
		c0.874,1.364,2.097,2.561,2.926,3.933c1.24,1.678,6.185,6.835,7.084,8.723c0.245,0.542,1.319,1.259,1.537,1.818
		c-0.498-0.009-0.297,0.175-0.638-0.07c-0.227,0.044-0.952-0.489-0.996-0.358c-0.192-0.009-1.406-0.603-1.896-0.743
		c-0.664,0.411-2.315-1.626-2.891-1.521c-1.188-0.017-1.878-0.996-2.717-1.643c-0.131-0.463-0.681-0.621-1.022-0.953
		c-2.123-2.78-5.564-6.442-7.871-9.099c-0.62-1.294-1.965-2.054-2.42-3.47c-0.271-0.437-0.603-0.647-0.996-1.023
		c-0.218-0.559-0.874-0.813-1.013-1.442c-0.926-0.865-1.302-2.107-2.14-3.068c-0.419-0.061-0.297-0.559-0.533-0.795
		c-1.074-1.573-2.297-2.998-3.468-4.519c-1.371-2.299-3.18-4.283-4.455-6.678c-0.812-0.988-1.52-2.01-2.254-3.059
		c-1.302-1.556-2.236-3.461-3.468-5.07c-0.227-0.743-0.882-1.171-1.267-1.801c-1.223-1.739-2.114-3.776-3.398-5.472
		c-0.14-0.638-0.655-1.11-0.952-1.687c-0.9-1.766-2.131-3.444-3.005-5.183c-2.341-3.968-4.368-7.884-6.648-11.87
		c-0.114-0.315-0.585-0.489-0.463-0.918c-0.646-1.066-1.415-2.063-1.904-3.19l-1.328-2.343C79.725,76.82,79,73,79,73h333v202
		H111.906c0,0,62.466-20.41,121.019-49.254c59.828-29.474,34.487-30.925,20.38-30.575c-35.23,0.874-75.115-18.434-97.565-43.599
		c0,0-0.087-0.114-0.97-0.822c-0.393-0.306-0.55-0.455-1.013-0.778c-0.594-0.428-1.101-0.892-2.324-1.757
		c-1.616-1.792-2.953-2.884-4.499-4.72c-1.127-0.778-1.302-2.526-2.664-3.068c-0.699-0.822-1.005-1.888-1.974-2.474
		c0.017-1.101-0.935-0.629-1.363-1.669c-1.302-1.827-1.634-2.692-1.791-2.884c-0.507-1.285-1.52-1.049-1.887-2.369
		c-0.367-0.9-1.756-1.888-2.166-2.771c-1.083-0.918-2.717-3.313-2.76-3.356c-0.044-1.302-1.153-2.255-1.389-2.378
		c-0.603-0.184-1.162-1.276-1.599-0.83L129.333,121.686"/>
	<path id="Fill-14" fill="#FFFFFE" d="M123.471,117.11c0.381,0.441,0.717,2.639,1.379,2.832c0.181,0.497,1.134,0.736,1.361,1.057
		c0.444-0.147,0.907-0.092,1.297-0.451c0.236-0.211,0.535-0.497,0.444-0.855c0.127-0.432-0.027-0.91-0.163-1.425
		c-0.2-0.322-1.134-2.382-1.46-2.713c-0.653-0.662-1.787-1.021-2.422-1.692c-0.299,0.028-0.163-0.405-0.445-0.395
		c-0.218-0.11-0.254-0.414-0.571-0.34c-0.009-0.028-0.045-0.083-0.009-0.083c-0.209-0.083-0.363-0.018-0.562-0.046
		c-0.354,0.46-0.354,1.269-0.281,1.83L123.471,117.11"/>
	<polyline id="Fill-15" fill="#DC3B41" points="10,256 116,256 85.319,276 10,276 10,256 	"/>
	<path id="Fill-16" fill="#DC3B41" d="M113,276c26.967-10.9,43.381-16.355,52.855-20H412v20H113"/>
</g>
</svg>
